<?xml version="1.0" encoding="UTF-8"?>
<!DOCTYPE svg PUBLIC "-//W3C//DTD SVG 1.1//EN" "http://www.w3.org/Graphics/SVG/1.1/DTD/svg11.dtd">
<svg xmlns="http://www.w3.org/2000/svg" version="1.1" width="666px" height="374px" style="shape-rendering:geometricPrecision; text-rendering:geometricPrecision; image-rendering:optimizeQuality; fill-rule:evenodd; clip-rule:evenodd" xmlns:xlink="http://www.w3.org/1999/xlink">
<g><path style="opacity:1" fill="#fefefe" d="M -0.5,-0.5 C 221.5,-0.5 443.5,-0.5 665.5,-0.5C 665.5,124.167 665.5,248.833 665.5,373.5C 443.5,373.5 221.5,373.5 -0.5,373.5C -0.5,248.833 -0.5,124.167 -0.5,-0.5 Z"/></g>
<g><path style="opacity:1" fill="#40a7c4" d="M 277.5,30.5 C 293.996,31.7599 308.663,37.4266 321.5,47.5C 322.162,98.8443 321.496,149.844 319.5,200.5C 309.752,194.793 299.418,190.46 288.5,187.5C 288.611,186.883 288.944,186.383 289.5,186C 285.299,185.926 281.299,185.093 277.5,183.5C 264.134,182.816 250.801,182.15 237.5,181.5C 236.5,130.838 236.167,80.1711 236.5,29.5C 250.171,29.6886 263.838,30.0219 277.5,30.5 Z"/></g>
<g><path style="opacity:1" fill="#40a7c4" d="M 367.5,187.5 C 355.473,189.839 344.473,194.506 334.5,201.5C 333.501,150.003 333.168,98.336 333.5,46.5C 338.051,43.0571 343.051,40.3905 348.5,38.5C 351.238,37.7628 353.905,37.7628 356.5,38.5C 360.233,37.6025 363.899,36.6025 367.5,35.5C 367.5,34.5 367.5,33.5 367.5,32.5C 383.771,30.5698 400.104,29.7364 416.5,30C 417,30.5 417.5,31 418,31.5C 418.5,81.4989 418.667,131.499 418.5,181.5C 412.203,182.539 405.87,182.706 399.5,182C 398.874,181.25 398.374,180.416 398,179.5C 397.395,181.481 396.395,181.815 395,180.5C 394.25,181.126 393.416,181.626 392.5,182C 384.193,183.164 375.86,183.997 367.5,184.5C 367.5,185.5 367.5,186.5 367.5,187.5 Z"/></g>
<g><path style="opacity:1" fill="#5ca9bb" d="M 277.5,30.5 C 263.838,30.0219 250.171,29.6886 236.5,29.5C 236.167,80.1711 236.5,130.838 237.5,181.5C 250.801,182.15 264.134,182.816 277.5,183.5C 281.299,185.093 285.299,185.926 289.5,186C 288.944,186.383 288.611,186.883 288.5,187.5C 270.981,184.362 253.314,183.029 235.5,183.5C 235.5,131.5 235.5,79.5 235.5,27.5C 249.734,27.299 263.734,28.299 277.5,30.5 Z"/></g>
<g><path style="opacity:1" fill="#9accd6" d="M 333.5,46.5 C 333.168,98.336 333.501,150.003 334.5,201.5C 334.44,202.043 334.107,202.376 333.5,202.5C 332.169,150.335 332.169,98.3349 333.5,46.5 Z"/></g>
<g><path style="opacity:1" fill="#7eb7c6" d="M 321.5,47.5 C 322.831,99.0016 322.831,150.668 321.5,202.5C 320.478,202.145 319.811,201.478 319.5,200.5C 321.496,149.844 322.162,98.8443 321.5,47.5 Z"/></g>
<g><path style="opacity:1" fill="#80b9ca" d="M 431.5,48.5 C 432.167,48.5 432.5,48.8333 432.5,49.5C 431.833,97.5 431.167,145.5 430.5,193.5C 430.168,144.997 430.501,96.6638 431.5,48.5 Z"/></g>
<g><path style="opacity:1" fill="#93c5d2" d="M 419.5,183.5 C 419.5,131.833 419.5,80.1667 419.5,28.5C 407.482,28.3578 395.482,28.6912 383.5,29.5C 385.631,28.6862 387.964,28.1862 390.5,28C 400.494,27.5002 410.494,27.3335 420.5,27.5C 420.832,79.6693 420.499,131.669 419.5,183.5 Z"/></g>
<g><path style="opacity:1" fill="#74b4c6" d="M 224.5,48.5 C 224.5,97.1667 224.5,145.833 224.5,194.5C 234.833,194.5 245.167,194.5 255.5,194.5C 258.385,194.194 261.052,194.527 263.5,195.5C 250.167,195.5 236.833,195.5 223.5,195.5C 223.667,148.165 223.5,100.832 223,53.5C 220.821,54.3961 218.988,55.7294 217.5,57.5C 216.5,105.495 216.167,153.495 216.5,201.5C 229.677,201.171 242.677,201.505 255.5,202.5C 242.167,202.5 228.833,202.5 215.5,202.5C 215.333,153.832 215.5,105.166 216,56.5C 218.703,53.6286 221.536,50.9619 224.5,48.5 Z"/></g>
<g><path style="opacity:1" fill="#cae6eb" d="M 438.5,56.5 C 438.5,56.1667 438.5,55.8333 438.5,55.5C 439.833,79.4907 440.5,103.824 440.5,128.5C 440.5,153.002 440.167,177.336 439.5,201.5C 439.832,152.997 439.499,104.664 438.5,56.5 Z"/></g>
<g><path style="opacity:1" fill="#4fa5bb" d="M 419.5,183.5 C 409.161,183.334 398.828,183.5 388.5,184C 385.635,184.183 382.969,184.683 380.5,185.5C 376.127,185.982 371.794,186.648 367.5,187.5C 367.5,186.5 367.5,185.5 367.5,184.5C 375.86,183.997 384.193,183.164 392.5,182C 393.416,181.626 394.25,181.126 395,180.5C 396.395,181.815 397.395,181.481 398,179.5C 398.374,180.416 398.874,181.25 399.5,182C 405.87,182.706 412.203,182.539 418.5,181.5C 418.667,131.499 418.5,81.4989 418,31.5C 417.5,31 417,30.5 416.5,30C 400.104,29.7364 383.771,30.5698 367.5,32.5C 367.5,33.5 367.5,34.5 367.5,35.5C 363.899,36.6025 360.233,37.6025 356.5,38.5C 353.905,37.7628 351.238,37.7628 348.5,38.5C 352.446,36.0096 356.78,34.1762 361.5,33C 368.711,30.9908 376.044,29.8241 383.5,29.5C 395.482,28.6912 407.482,28.3578 419.5,28.5C 419.5,80.1667 419.5,131.833 419.5,183.5 Z"/></g>
<g><path style="opacity:1" fill="#41a6c5" d="M 438.5,71.5 C 438.5,112.167 438.5,152.833 438.5,193.5C 437.539,195.265 437.205,197.265 437.5,199.5C 433.501,199.909 429.834,199.075 426.5,197C 428.436,196.187 430.436,195.687 432.5,195.5C 434.815,154.083 435.148,112.583 433.5,71C 432.953,65.9597 434.12,61.4597 437,57.5C 437.174,62.3514 437.674,67.0181 438.5,71.5 Z"/></g>
<g><path style="opacity:1" fill="#c8e6ed" d="M 224.5,48.5 C 225.499,96.6638 225.832,144.997 225.5,193.5C 235.681,193.173 245.681,193.506 255.5,194.5C 245.167,194.5 234.833,194.5 224.5,194.5C 224.5,145.833 224.5,97.1667 224.5,48.5 Z"/></g>
<g><path style="opacity:1" fill="#44a6c1" d="M 432.5,49.5 C 434.167,51.8333 436.167,53.8333 438.5,55.5C 438.5,55.8333 438.5,56.1667 438.5,56.5C 438.5,61.5 438.5,66.5 438.5,71.5C 437.674,67.0181 437.174,62.3514 437,57.5C 434.12,61.4597 432.953,65.9597 433.5,71C 435.148,112.583 434.815,154.083 432.5,195.5C 430.436,195.687 428.436,196.187 426.5,197C 429.834,199.075 433.501,199.909 437.5,199.5C 437.205,197.265 437.539,195.265 438.5,193.5C 438.5,195.833 438.5,198.167 438.5,200.5C 415.492,200.625 392.492,200.792 369.5,201C 372.987,200.72 375.654,199.22 377.5,196.5C 378.833,196.5 380.167,196.5 381.5,196.5C 397.974,195.292 414.307,194.292 430.5,193.5C 431.167,145.5 431.833,97.5 432.5,49.5 Z"/></g>
<g><path style="opacity:1" fill="#e7f6fb" d="M 431.5,48.5 C 430.501,96.6638 430.168,144.997 430.5,193.5C 430.167,193.5 429.833,193.5 429.5,193.5C 429.167,144.829 429.5,96.1621 430.5,47.5C 431.107,47.6236 431.44,47.9569 431.5,48.5 Z"/></g>
<g><path style="opacity:1" fill="#c5e0e8" d="M 419.5,183.5 C 406.664,184.364 393.664,185.031 380.5,185.5C 382.969,184.683 385.635,184.183 388.5,184C 398.828,183.5 409.161,183.334 419.5,183.5 Z"/></g>
<g><path style="opacity:1" fill="#a8d2dc" d="M 429.5,193.5 C 429.833,193.5 430.167,193.5 430.5,193.5C 414.307,194.292 397.974,195.292 381.5,196.5C 386.903,194.882 392.57,194.049 398.5,194C 408.828,193.5 419.161,193.334 429.5,193.5 Z"/></g>
<g><path style="opacity:1" fill="#46a7c2" d="M 263.5,195.5 C 284.141,195.55 303.141,200.883 320.5,211.5C 316.702,212.483 312.702,212.817 308.5,212.5C 291.543,205.843 273.876,202.509 255.5,202.5C 242.677,201.505 229.677,201.171 216.5,201.5C 216.167,153.495 216.5,105.495 217.5,57.5C 218.988,55.7294 220.821,54.3961 223,53.5C 223.5,100.832 223.667,148.165 223.5,195.5C 236.833,195.5 250.167,195.5 263.5,195.5 Z"/></g>
<g><path style="opacity:1" fill="#57a9bf" d="M 438.5,56.5 C 439.499,104.664 439.832,152.997 439.5,201.5C 418.114,201.068 396.781,201.901 375.5,204C 365.464,205.691 355.797,208.525 346.5,212.5C 342.298,212.817 338.298,212.483 334.5,211.5C 347.446,202.739 361.779,197.739 377.5,196.5C 375.654,199.22 372.987,200.72 369.5,201C 392.492,200.792 415.492,200.625 438.5,200.5C 438.5,198.167 438.5,195.833 438.5,193.5C 438.5,152.833 438.5,112.167 438.5,71.5C 438.5,66.5 438.5,61.5 438.5,56.5 Z"/></g>
<g><path style="opacity:1" fill="#b4d6df" d="M 320.5,211.5 C 321.043,211.56 321.376,211.893 321.5,212.5C 317.016,213.811 312.683,213.811 308.5,212.5C 312.702,212.817 316.702,212.483 320.5,211.5 Z"/></g>
<g><path style="opacity:1" fill="#b2d7df" d="M 334.5,211.5 C 338.298,212.483 342.298,212.817 346.5,212.5C 342.317,213.811 337.984,213.811 333.5,212.5C 333.624,211.893 333.957,211.56 334.5,211.5 Z"/></g>
<g><path style="opacity:1" fill="#8399a8" d="M 72.5,263.5 C 70.2646,263.205 68.2646,263.539 66.5,264.5C 65.9569,264.44 65.6236,264.107 65.5,263.5C 67.9732,262.203 70.3066,262.203 72.5,263.5 Z"/></g>
<g><path style="opacity:1" fill="#839aa7" d="M 411.5,263.5 C 408.918,263.025 406.918,263.692 405.5,265.5C 404.596,264.791 404.263,263.791 404.5,262.5C 407.059,262.198 409.393,262.532 411.5,263.5 Z"/></g>
<g><path style="opacity:1" fill="#637f96" d="M 106.5,264.5 C 106.5,264.167 106.5,263.833 106.5,263.5C 119.833,263.5 133.167,263.5 146.5,263.5C 146.5,265.833 146.5,268.167 146.5,270.5C 140.833,270.5 135.167,270.5 129.5,270.5C 134.64,269.512 139.974,269.179 145.5,269.5C 145.5,267.833 145.5,266.167 145.5,264.5C 132.5,264.5 119.5,264.5 106.5,264.5 Z"/></g>
<g><path style="opacity:1" fill="#668199" d="M 181.5,270.5 C 181.167,270.5 180.833,270.5 180.5,270.5C 185.64,269.512 190.974,269.179 196.5,269.5C 196.5,267.833 196.5,266.167 196.5,264.5C 183.833,264.5 171.167,264.5 158.5,264.5C 158.5,266.167 158.5,267.833 158.5,269.5C 164.026,269.179 169.36,269.512 174.5,270.5C 168.833,270.5 163.167,270.5 157.5,270.5C 157.5,268.167 157.5,265.833 157.5,263.5C 170.833,263.5 184.167,263.5 197.5,263.5C 197.5,265.833 197.5,268.167 197.5,270.5C 192.167,270.5 186.833,270.5 181.5,270.5 Z"/></g>
<g><path style="opacity:1" fill="#6b859b" d="M 220.5,270.5 C 228.65,269.507 236.983,269.174 245.5,269.5C 245.5,267.833 245.5,266.167 245.5,264.5C 235.167,264.5 224.833,264.5 214.5,264.5C 214.5,279.833 214.5,295.167 214.5,310.5C 225.833,310.5 237.167,310.5 248.5,310.5C 248.833,310.5 249.167,310.5 249.5,310.5C 237.678,311.495 225.678,311.828 213.5,311.5C 213.5,295.5 213.5,279.5 213.5,263.5C 224.5,263.5 235.5,263.5 246.5,263.5C 246.5,265.833 246.5,268.167 246.5,270.5C 237.833,270.5 229.167,270.5 220.5,270.5 Z"/></g>
<g><path style="opacity:1" fill="#456580" d="M 275.5,267.5 C 273.5,267.167 271.5,266.833 269.5,266.5C 269.5,267.5 269.5,268.5 269.5,269.5C 262.447,264.43 263.447,262.597 272.5,264C 273.71,265.039 274.71,266.206 275.5,267.5 Z"/></g>
<g><path style="opacity:1" fill="#8da3b5" d="M 309.5,263.5 C 310.496,279.325 310.83,295.325 310.5,311.5C 307.941,311.802 305.607,311.468 303.5,310.5C 305.5,310.5 307.5,310.5 309.5,310.5C 309.5,295.167 309.5,279.833 309.5,264.5C 309.5,264.167 309.5,263.833 309.5,263.5 Z"/></g>
<g><path style="opacity:1" fill="#68869d" d="M 309.5,263.5 C 309.5,263.833 309.5,264.167 309.5,264.5C 307.833,264.5 306.167,264.5 304.5,264.5C 304.828,276.345 304.495,288.012 303.5,299.5C 303.5,287.5 303.5,275.5 303.5,263.5C 305.5,263.5 307.5,263.5 309.5,263.5 Z"/></g>
<g><path style="opacity:1" fill="#4c6c86" d="M 354.5,264.5 C 346.5,264.5 338.5,264.5 330.5,264.5C 330.683,266.988 331.683,268.988 333.5,270.5C 332.167,270.5 330.833,270.5 329.5,270.5C 329.414,268.323 328.747,266.323 327.5,264.5C 336.658,263.178 345.658,263.178 354.5,264.5 Z"/></g>
<g><path style="opacity:1" fill="#88a0b0" d="M 106.5,263.5 C 106.5,263.833 106.5,264.167 106.5,264.5C 106.5,266.167 106.5,267.833 106.5,269.5C 112.026,269.179 117.36,269.512 122.5,270.5C 116.833,270.5 111.167,270.5 105.5,270.5C 105.198,267.941 105.532,265.607 106.5,263.5 Z"/></g>
<g><path style="opacity:1" fill="#29567e" d="M 579.5,270.5 C 578.514,274.97 578.181,279.637 578.5,284.5C 585.123,283.62 591.789,283.287 598.5,283.5C 598.5,285.5 598.5,287.5 598.5,289.5C 592.01,289.02 585.677,289.687 579.5,291.5C 578.189,295.984 578.189,300.317 579.5,304.5C 588.652,305.494 597.985,305.827 607.5,305.5C 607.5,307.167 607.5,308.833 607.5,310.5C 596.167,310.5 584.833,310.5 573.5,310.5C 573.5,295.167 573.5,279.833 573.5,264.5C 583.833,264.5 594.167,264.5 604.5,264.5C 604.5,266.167 604.5,267.833 604.5,269.5C 595.983,269.174 587.65,269.507 579.5,270.5 Z"/></g>
<g><path style="opacity:1" fill="#2c5981" d="M 180.5,270.5 C 180.5,283.833 180.5,297.167 180.5,310.5C 178.5,310.5 176.5,310.5 174.5,310.5C 174.5,297.167 174.5,283.833 174.5,270.5C 169.36,269.512 164.026,269.179 158.5,269.5C 158.5,267.833 158.5,266.167 158.5,264.5C 171.167,264.5 183.833,264.5 196.5,264.5C 196.5,266.167 196.5,267.833 196.5,269.5C 190.974,269.179 185.64,269.512 180.5,270.5 Z"/></g>
<g><path style="opacity:1" fill="#768fa4" d="M 485.5,310.5 C 487.5,310.5 489.5,310.5 491.5,310.5C 491.5,295.167 491.5,279.833 491.5,264.5C 489.833,264.5 488.167,264.5 486.5,264.5C 486.5,275.833 486.5,287.167 486.5,298.5C 486.5,298.833 486.5,299.167 486.5,299.5C 486.167,299.5 485.833,299.5 485.5,299.5C 485.5,287.5 485.5,275.5 485.5,263.5C 487.833,263.5 490.167,263.5 492.5,263.5C 492.5,279.5 492.5,295.5 492.5,311.5C 489.941,311.802 487.607,311.468 485.5,310.5 Z"/></g>
<g><path style="opacity:1" fill="#27557e" d="M 106.5,264.5 C 119.5,264.5 132.5,264.5 145.5,264.5C 145.5,266.167 145.5,267.833 145.5,269.5C 139.974,269.179 134.64,269.512 129.5,270.5C 128.504,283.656 128.171,296.99 128.5,310.5C 127.167,310.5 125.833,310.5 124.5,310.5C 124.829,296.99 124.496,283.656 123.5,270.5C 123.167,270.5 122.833,270.5 122.5,270.5C 117.36,269.512 112.026,269.179 106.5,269.5C 106.5,267.833 106.5,266.167 106.5,264.5 Z"/></g>
<g><path style="opacity:1" fill="#cad7e0" d="M 180.5,270.5 C 180.833,270.5 181.167,270.5 181.5,270.5C 181.5,284.167 181.5,297.833 181.5,311.5C 178.941,311.802 176.607,311.468 174.5,310.5C 176.5,310.5 178.5,310.5 180.5,310.5C 180.5,297.167 180.5,283.833 180.5,270.5 Z"/></g>
<g><path style="opacity:1" fill="#57758e" d="M 579.5,270.5 C 587.65,269.507 595.983,269.174 604.5,269.5C 604.5,267.833 604.5,266.167 604.5,264.5C 594.167,264.5 583.833,264.5 573.5,264.5C 573.5,279.833 573.5,295.167 573.5,310.5C 573.167,310.5 572.833,310.5 572.5,310.5C 572.5,294.833 572.5,279.167 572.5,263.5C 583.5,263.5 594.5,263.5 605.5,263.5C 605.5,265.833 605.5,268.167 605.5,270.5C 596.833,270.5 588.167,270.5 579.5,270.5 Z"/></g>
<g><path style="opacity:1" fill="#4b6b88" d="M 457.5,267.5 C 455.164,266.657 452.831,266.157 450.5,266C 451.126,266.75 451.626,267.584 452,268.5C 452.5,282.496 452.667,296.496 452.5,310.5C 453.833,310.5 455.167,310.5 456.5,310.5C 456.172,299.986 456.506,289.653 457.5,279.5C 457.5,289.833 457.5,300.167 457.5,310.5C 455.735,311.461 453.735,311.795 451.5,311.5C 451.667,297.496 451.5,283.496 451,269.5C 449.878,267.376 448.378,265.543 446.5,264C 451.181,262.519 454.848,263.686 457.5,267.5 Z"/></g>
<g><path style="opacity:1" fill="#265781" d="M 457.5,267.5 C 459.063,268.945 460.396,270.611 461.5,272.5C 462.929,275.439 464.595,278.272 466.5,281C 466.333,281.5 466.167,282 466,282.5C 464.259,281.242 462.426,280.242 460.5,279.5C 460.167,279.5 459.833,279.5 459.5,279.5C 458.833,278.167 458.167,278.167 457.5,279.5C 456.506,289.653 456.172,299.986 456.5,310.5C 455.167,310.5 453.833,310.5 452.5,310.5C 452.667,296.496 452.5,282.496 452,268.5C 451.626,267.584 451.126,266.75 450.5,266C 452.831,266.157 455.164,266.657 457.5,267.5 Z"/></g>
<g><path style="opacity:1" fill="#3c6387" d="M 354.5,264.5 C 366.766,266.936 373.099,274.436 373.5,287C 372.835,298.999 366.835,306.999 355.5,311C 348.253,311.812 341.086,311.646 334,310.5C 333.5,297.171 333.333,283.837 333.5,270.5C 331.683,268.988 330.683,266.988 330.5,264.5C 338.5,264.5 346.5,264.5 354.5,264.5 Z"/></g>
<g><path style="opacity:1" fill="#fcfcfd" d="M 362.5,300.5 C 361.128,301.512 359.795,302.512 358.5,303.5C 352.559,304.413 346.559,304.746 340.5,304.5C 340.5,293.167 340.5,281.833 340.5,270.5C 364.486,268.498 371.819,278.498 362.5,300.5 Z"/></g>
<g><path style="opacity:1" fill="#315b7f" d="M 485.5,310.5 C 476.764,300.437 468.431,290.104 460.5,279.5C 462.426,280.242 464.259,281.242 466,282.5C 466.167,282 466.333,281.5 466.5,281C 464.595,278.272 462.929,275.439 461.5,272.5C 469.5,281.5 477.5,290.5 485.5,299.5C 485.833,299.5 486.167,299.5 486.5,299.5C 486.179,301.048 485.179,301.715 483.5,301.5C 483.393,306.434 485.56,308.434 490,307.5C 490.5,293.504 490.667,279.504 490.5,265.5C 489.5,265.5 488.5,265.5 487.5,265.5C 487.828,276.679 487.495,287.679 486.5,298.5C 486.5,287.167 486.5,275.833 486.5,264.5C 488.167,264.5 489.833,264.5 491.5,264.5C 491.5,279.833 491.5,295.167 491.5,310.5C 489.5,310.5 487.5,310.5 485.5,310.5 Z"/></g>
<g><path style="opacity:1" fill="#28577f" d="M 220.5,270.5 C 219.514,274.97 219.181,279.637 219.5,284.5C 226.131,283.669 232.798,283.336 239.5,283.5C 239.5,285.5 239.5,287.5 239.5,289.5C 234.156,289.334 228.823,289.501 223.5,290C 222.5,290.5 221.5,291 220.5,291.5C 219.189,295.984 219.189,300.317 220.5,304.5C 229.652,305.494 238.985,305.827 248.5,305.5C 248.5,307.167 248.5,308.833 248.5,310.5C 237.167,310.5 225.833,310.5 214.5,310.5C 214.5,295.167 214.5,279.833 214.5,264.5C 224.833,264.5 235.167,264.5 245.5,264.5C 245.5,266.167 245.5,267.833 245.5,269.5C 236.983,269.174 228.65,269.507 220.5,270.5 Z"/></g>
<g><path style="opacity:1" fill="#2a5881" d="M 309.5,264.5 C 309.5,279.833 309.5,295.167 309.5,310.5C 307.5,310.5 305.5,310.5 303.5,310.5C 295.207,300.205 286.54,290.205 277.5,280.5C 277.5,280.167 277.5,279.833 277.5,279.5C 276.791,278.596 275.791,278.263 274.5,278.5C 274.5,289.167 274.5,299.833 274.5,310.5C 272.833,310.5 271.167,310.5 269.5,310.5C 269.5,296.833 269.5,283.167 269.5,269.5C 269.5,268.5 269.5,267.5 269.5,266.5C 271.5,266.833 273.5,267.167 275.5,267.5C 284.541,278.533 293.874,289.2 303.5,299.5C 304.495,288.012 304.828,276.345 304.5,264.5C 306.167,264.5 307.833,264.5 309.5,264.5 Z"/></g>
<g><path style="opacity:1" fill="#587892" d="M 277.5,279.5 C 275.525,289.446 274.858,299.779 275.5,310.5C 273.5,311.833 271.5,311.833 269.5,310.5C 271.167,310.5 272.833,310.5 274.5,310.5C 274.5,299.833 274.5,289.167 274.5,278.5C 275.791,278.263 276.791,278.596 277.5,279.5 Z"/></g>
<g><path style="opacity:1" fill="#bbc8d4" d="M 459.5,279.5 C 458.833,289.833 458.167,300.167 457.5,310.5C 457.5,300.167 457.5,289.833 457.5,279.5C 458.167,278.167 458.833,278.167 459.5,279.5 Z"/></g>
<g><path style="opacity:1" fill="#52738b" d="M 123.5,270.5 C 124.496,283.656 124.829,296.99 124.5,310.5C 125.833,310.5 127.167,310.5 128.5,310.5C 128.171,296.99 128.504,283.656 129.5,270.5C 129.5,284.167 129.5,297.833 129.5,311.5C 127.5,311.5 125.5,311.5 123.5,311.5C 123.5,297.833 123.5,284.167 123.5,270.5 Z"/></g>
<g><path style="opacity:1" fill="#dce5ed" d="M 277.5,279.5 C 277.5,279.833 277.5,280.167 277.5,280.5C 276.833,290.5 276.167,300.5 275.5,310.5C 274.858,299.779 275.525,289.446 277.5,279.5 Z"/></g>
<g><path style="opacity:1" fill="#235784" d="M 486.5,299.5 C 486.5,299.167 486.5,298.833 486.5,298.5C 487.495,287.679 487.828,276.679 487.5,265.5C 488.5,265.5 489.5,265.5 490.5,265.5C 490.667,279.504 490.5,293.504 490,307.5C 485.56,308.434 483.393,306.434 483.5,301.5C 485.179,301.715 486.179,301.048 486.5,299.5 Z"/></g>
<g><path style="opacity:1" fill="#315c83" d="M 411.5,263.5 C 418.771,278.375 425.771,293.375 432.5,308.5C 431.082,310.308 429.082,310.975 426.5,310.5C 426.123,308.742 425.456,307.075 424.5,305.5C 416.187,304.335 407.853,304.168 399.5,305C 396.924,305.782 394.924,307.282 393.5,309.5C 391.167,310.833 388.833,310.833 386.5,309.5C 392.457,296.252 398.957,283.252 406,270.5C 406.64,268.735 406.473,267.068 405.5,265.5C 406.918,263.692 408.918,263.025 411.5,263.5 Z"/></g>
<g><path style="opacity:1" fill="#f1f4f7" d="M 408.5,277.5 C 409.496,277.414 410.329,277.748 411,278.5C 414.421,284.342 417.588,290.342 420.5,296.5C 413.74,297.06 407.073,298.06 400.5,299.5C 399.417,298.635 399.251,297.635 400,296.5C 403.13,290.268 405.963,283.934 408.5,277.5 Z"/></g>
<g><path style="opacity:1" fill="#335d83" d="M 72.5,263.5 C 79.7259,278.291 86.7259,293.291 93.5,308.5C 92.0821,310.308 90.0821,310.975 87.5,310.5C 87.1307,308.559 86.464,306.725 85.5,305C 77.5,304.333 69.5,304.333 61.5,305C 59.5,306 57.5,307 55.5,308C 54.7476,308.671 54.4142,309.504 54.5,310.5C 51.9179,310.975 49.9179,310.308 48.5,308.5C 54.3721,295.396 60.5388,282.396 67,269.5C 67.6397,267.735 67.4731,266.068 66.5,264.5C 68.2646,263.539 70.2646,263.205 72.5,263.5 Z"/></g>
<g><path style="opacity:1" fill="#eff3f6" d="M 69.5,277.5 C 70.675,277.281 71.675,277.614 72.5,278.5C 75.5,284.5 78.5,290.5 81.5,296.5C 74.74,297.06 68.0733,298.06 61.5,299.5C 61.1667,299.167 60.8333,298.833 60.5,298.5C 63.7007,291.558 66.7007,284.558 69.5,277.5 Z"/></g>
<g><path style="opacity:1" fill="#245782" d="M 358.5,303.5 C 359.795,302.512 361.128,301.512 362.5,300.5C 365.312,299.113 366.145,300.113 365,303.5C 362.674,305.164 360.341,306.831 358,308.5C 350.544,309.45 343.044,309.784 335.5,309.5C 335.5,308.167 335.5,306.833 335.5,305.5C 341.541,305.253 347.541,305.586 353.5,306.5C 355.692,306.243 357.359,305.243 358.5,303.5 Z"/></g>
<g><path style="opacity:1" fill="#2f5b81" d="M 528.5,262.5 C 538.02,260.961 546.354,263.294 553.5,269.5C 550.642,274.307 547.309,274.474 543.5,270C 532.521,266.575 524.021,269.742 518,279.5C 514.699,291.276 518.532,299.776 529.5,305C 538.078,307.203 545.245,305.037 551,298.5C 552.659,299.817 553.826,301.483 554.5,303.5C 549.55,309.708 543.05,312.374 535,311.5C 523.85,311.373 516.183,306.04 512,295.5C 507.92,279.66 513.42,268.66 528.5,262.5 Z"/></g>
<g><path style="opacity:1" fill="#5d7b95" d="M 220.5,304.5 C 230.167,304.5 239.833,304.5 249.5,304.5C 249.5,306.5 249.5,308.5 249.5,310.5C 249.167,310.5 248.833,310.5 248.5,310.5C 248.5,308.833 248.5,307.167 248.5,305.5C 238.985,305.827 229.652,305.494 220.5,304.5 Z"/></g>
<g><path style="opacity:1" fill="#728ba2" d="M 579.5,304.5 C 589.167,304.5 598.833,304.5 608.5,304.5C 608.5,306.833 608.5,309.167 608.5,311.5C 596.322,311.828 584.322,311.495 572.5,310.5C 572.833,310.5 573.167,310.5 573.5,310.5C 584.833,310.5 596.167,310.5 607.5,310.5C 607.5,308.833 607.5,307.167 607.5,305.5C 597.985,305.827 588.652,305.494 579.5,304.5 Z"/></g>
<g><path style="opacity:1" fill="#98a8b5" d="M 48.5,308.5 C 49.9179,310.308 51.9179,310.975 54.5,310.5C 52.3926,311.468 50.0593,311.802 47.5,311.5C 47.2627,310.209 47.596,309.209 48.5,308.5 Z"/></g>
<g><path style="opacity:1" fill="#899ead" d="M 93.5,308.5 C 94.404,309.209 94.7373,310.209 94.5,311.5C 91.9407,311.802 89.6074,311.468 87.5,310.5C 90.0821,310.975 92.0821,310.308 93.5,308.5 Z"/></g>
<g><path style="opacity:1" fill="#94a4b2" d="M 432.5,308.5 C 433.404,309.209 433.737,310.209 433.5,311.5C 430.941,311.802 428.607,311.468 426.5,310.5C 429.082,310.975 431.082,310.308 432.5,308.5 Z"/></g>
</svg>
