<?xml version="1.0" encoding="UTF-8"?>
<!DOCTYPE svg PUBLIC "-//W3C//DTD SVG 1.1//EN" "http://www.w3.org/Graphics/SVG/1.1/DTD/svg11.dtd">
<svg xmlns="http://www.w3.org/2000/svg" version="1.1" width="247px" height="247px" style="shape-rendering:geometricPrecision; text-rendering:geometricPrecision; image-rendering:optimizeQuality; fill-rule:evenodd; clip-rule:evenodd" xmlns:xlink="http://www.w3.org/1999/xlink">
<g><path style="opacity:1" fill="#fdfefe" d="M -0.5,-0.5 C 81.8333,-0.5 164.167,-0.5 246.5,-0.5C 246.5,81.8333 246.5,164.167 246.5,246.5C 164.167,246.5 81.8333,246.5 -0.5,246.5C -0.5,164.167 -0.5,81.8333 -0.5,-0.5 Z"/></g>
<g><path style="opacity:1" fill="#40a7c4" d="M 83.5,32.5 C 84.1667,32.5 84.8333,32.5 85.5,32.5C 87.9247,35.7616 91.2581,37.2616 95.5,37C 98.6426,39.7104 102.309,41.3771 106.5,42C 107.451,42.7175 107.617,43.5509 107,44.5C 105.745,45.2106 104.579,46.044 103.5,47C 107.179,46.8519 110.845,46.3519 114.5,45.5C 115.167,45.8333 115.833,46.1667 116.5,46.5C 116.833,97.5044 116.5,148.504 115.5,199.5C 114.158,197.995 112.492,197.328 110.5,197.5C 108.847,197.34 107.514,196.674 106.5,195.5C 105.525,193.807 104.192,192.307 102.5,191C 98.7098,190.77 95.3765,189.437 92.5,187C 88.9399,185.763 85.2733,185.263 81.5,185.5C 76.8478,185.002 72.1811,184.669 67.5,184.5C 67.1667,184.5 66.8333,184.5 66.5,184.5C 56.0494,182.81 45.3827,182.144 34.5,182.5C 32.5116,131.717 31.845,80.7168 32.5,29.5C 49.5745,29.4769 66.5745,30.4769 83.5,32.5 Z"/></g>
<g><path style="opacity:1" fill="#40a7c4" d="M 188.5,182.5 C 188.5,182.833 188.5,183.167 188.5,183.5C 187.167,183.5 185.833,183.5 184.5,183.5C 177.445,183.27 170.445,183.77 163.5,185C 158.231,186.278 153.231,188.111 148.5,190.5C 148.167,191.167 147.833,191.833 147.5,192.5C 144.491,192.723 141.824,193.723 139.5,195.5C 137.973,195.427 136.973,196.094 136.5,197.5C 135.391,197.557 134.391,197.89 133.5,198.5C 129.921,198.234 129.587,196.901 132.5,194.5C 131.176,170.147 130.509,145.647 130.5,121C 130.505,96.4287 130.838,71.9287 131.5,47.5C 141.335,40.5858 152.335,36.0858 164.5,34C 164.167,33.6667 163.833,33.3333 163.5,33C 180.092,30.7939 196.758,29.6272 213.5,29.5C 213.666,37.84 213.5,46.1733 213,54.5C 211,55.5 211,56.5 213,57.5C 213.833,98.5041 213.667,139.504 212.5,180.5C 209.388,181.125 206.221,181.459 203,181.5C 199.724,181.442 196.724,180.776 194,179.5C 191.942,180.229 190.109,181.229 188.5,182.5 Z"/></g>
<g><path style="opacity:1" fill="#7eb7c7" d="M 178.5,29.5 C 175.026,30.5249 171.36,31.1916 167.5,31.5C 170.845,29.783 174.511,29.1164 178.5,29.5 Z"/></g>
<g><path style="opacity:1" fill="#cce3eb" d="M 87.5,32.5 C 90.716,32.3455 93.3826,33.3455 95.5,35.5C 92.6027,34.871 89.936,33.871 87.5,32.5 Z"/></g>
<g><path style="opacity:1" fill="#89bdc9" d="M 160.5,32.5 C 157.495,34.2766 154.162,35.2766 150.5,35.5C 153.505,33.7234 156.838,32.7234 160.5,32.5 Z"/></g>
<g><path style="opacity:1" fill="#4fa8be" d="M 85.5,32.5 C 86.1667,32.5 86.8333,32.5 87.5,32.5C 89.936,33.871 92.6027,34.871 95.5,35.5C 102.315,37.9971 108.648,41.3305 114.5,45.5C 110.845,46.3519 107.179,46.8519 103.5,47C 104.579,46.044 105.745,45.2106 107,44.5C 107.617,43.5509 107.451,42.7175 106.5,42C 102.309,41.3771 98.6426,39.7104 95.5,37C 91.2581,37.2616 87.9247,35.7616 85.5,32.5 Z"/></g>
<g><path style="opacity:1" fill="#4ba6be" d="M 189.5,28.5 C 197.833,28.5 206.167,28.5 214.5,28.5C 214.5,79.8333 214.5,131.167 214.5,182.5C 205.833,182.5 197.167,182.5 188.5,182.5C 190.109,181.229 191.942,180.229 194,179.5C 196.724,180.776 199.724,181.442 203,181.5C 206.221,181.459 209.388,181.125 212.5,180.5C 213.667,139.504 213.833,98.5041 213,57.5C 211,56.5 211,55.5 213,54.5C 213.5,46.1733 213.666,37.84 213.5,29.5C 196.758,29.6272 180.092,30.7939 163.5,33C 163.833,33.3333 164.167,33.6667 164.5,34C 152.335,36.0858 141.335,40.5858 131.5,47.5C 131.5,46.8333 131.5,46.1667 131.5,45.5C 137.082,40.8743 143.415,37.541 150.5,35.5C 154.162,35.2766 157.495,34.2766 160.5,32.5C 162.717,31.6314 165.05,31.298 167.5,31.5C 171.36,31.1916 175.026,30.5249 178.5,29.5C 181.962,28.5184 185.629,28.185 189.5,28.5 Z"/></g>
<g><path style="opacity:1" fill="#5eabc0" d="M 116.5,46.5 C 116.833,46.5 117.167,46.5 117.5,46.5C 117.5,46.8333 117.5,47.1667 117.5,47.5C 118.162,98.8443 117.496,149.844 115.5,200.5C 113.566,199.89 111.899,198.89 110.5,197.5C 112.492,197.328 114.158,197.995 115.5,199.5C 116.5,148.504 116.833,97.5044 116.5,46.5 Z"/></g>
<g><path style="opacity:1" fill="#f0f9fc" d="M 225.5,48.5 C 225.5,96.8333 225.5,145.167 225.5,193.5C 217.833,193.5 210.167,193.5 202.5,193.5C 209.648,192.508 216.981,192.175 224.5,192.5C 224.168,144.33 224.501,96.3304 225.5,48.5 Z"/></g>
<g><path style="opacity:1" fill="#51a5b9" d="M 51.5,28.5 C 62.4822,28.4632 73.1488,29.7965 83.5,32.5C 66.5745,30.4769 49.5745,29.4769 32.5,29.5C 31.845,80.7168 32.5116,131.717 34.5,182.5C 33.5,182.5 32.5,182.5 31.5,182.5C 31.5,131.167 31.5,79.8333 31.5,28.5C 38.1667,28.5 44.8333,28.5 51.5,28.5 Z"/></g>
<g><path style="opacity:1" fill="#99cad3" d="M 51.5,28.5 C 44.8333,28.5 38.1667,28.5 31.5,28.5C 31.5,79.8333 31.5,131.167 31.5,182.5C 31.5,182.833 31.5,183.167 31.5,183.5C 30.5011,131.669 30.1678,79.6693 30.5,27.5C 37.6866,27.1755 44.6866,27.5088 51.5,28.5 Z"/></g>
<g><path style="opacity:1" fill="#42a6c4" d="M 228.5,50.5 C 229.219,52.7638 229.552,55.0971 229.5,57.5C 230.822,57.33 231.989,57.6634 233,58.5C 233.798,105.513 233.632,152.513 232.5,199.5C 228.5,199.5 224.5,199.5 220.5,199.5C 217.325,197.968 213.992,197.135 210.5,197C 216.489,196.301 222.489,195.801 228.5,195.5C 228.832,149.33 228.499,103.33 227.5,57.5C 227.198,54.9407 227.532,52.6074 228.5,50.5 Z"/></g>
<g><path style="opacity:1" fill="#81bccd" d="M 18.5,50.5 C 18.5,50.1667 18.5,49.8333 18.5,49.5C 20.4952,97.1551 21.1619,145.155 20.5,193.5C 20.1667,193.5 19.8333,193.5 19.5,193.5C 19.8321,145.664 19.4988,97.9971 18.5,50.5 Z"/></g>
<g><path style="opacity:1" fill="#71b4c6" d="M 214.5,28.5 C 215.499,79.9973 215.832,131.664 215.5,183.5C 206.5,183.5 197.5,183.5 188.5,183.5C 188.5,183.167 188.5,182.833 188.5,182.5C 197.167,182.5 205.833,182.5 214.5,182.5C 214.5,131.167 214.5,79.8333 214.5,28.5 Z"/></g>
<g><path style="opacity:1" fill="#48a2bb" d="M 131.5,47.5 C 130.838,71.9287 130.505,96.4287 130.5,121C 130.509,145.647 131.176,170.147 132.5,194.5C 129.587,196.901 129.921,198.234 133.5,198.5C 132.833,199.167 132.167,199.833 131.5,200.5C 130.167,175.342 129.5,149.842 129.5,124C 129.5,98.1578 130.167,72.6578 131.5,47.5 Z"/></g>
<g><path style="opacity:1" fill="#a7cfda" d="M 117.5,47.5 C 118.167,72.9978 118.5,98.6645 118.5,124.5C 118.5,150.509 117.833,176.175 116.5,201.5C 115.833,201.5 115.5,201.167 115.5,200.5C 117.496,149.844 118.162,98.8443 117.5,47.5 Z"/></g>
<g><path style="opacity:1" fill="#53a9c0" d="M 228.5,50.5 C 230.833,52.1667 232.833,54.1667 234.5,56.5C 234.5,104.5 234.5,152.5 234.5,200.5C 217.146,200.254 199.813,200.587 182.5,201.5C 183.263,200.732 184.263,200.232 185.5,200C 197.162,199.5 208.829,199.333 220.5,199.5C 224.5,199.5 228.5,199.5 232.5,199.5C 233.632,152.513 233.798,105.513 233,58.5C 231.989,57.6634 230.822,57.33 229.5,57.5C 229.552,55.0971 229.219,52.7638 228.5,50.5 Z"/></g>
<g><path style="opacity:1" fill="#f0f9fb" d="M 117.5,47.5 C 117.5,47.1667 117.5,46.8333 117.5,46.5C 119.496,98.156 120.162,150.156 119.5,202.5C 118.209,202.737 117.209,202.404 116.5,201.5C 117.833,176.175 118.5,150.509 118.5,124.5C 118.5,98.6645 118.167,72.9978 117.5,47.5 Z"/></g>
<g><path style="opacity:1" fill="#e1f0f3" d="M 235.5,56.5 C 236.499,104.997 236.832,153.664 236.5,202.5C 221.167,202.5 205.833,202.5 190.5,202.5C 205.324,201.504 220.324,201.171 235.5,201.5C 235.5,153.167 235.5,104.833 235.5,56.5 Z"/></g>
<g><path style="opacity:1" fill="#add4e0" d="M 225.5,48.5 C 226.492,48.3284 227.158,48.6618 227.5,49.5C 226.501,97.3304 226.168,145.33 226.5,193.5C 226.167,193.5 225.833,193.5 225.5,193.5C 225.5,145.167 225.5,96.8333 225.5,48.5 Z"/></g>
<g><path style="opacity:1" fill="#61aec3" d="M 227.5,49.5 C 228.167,49.5 228.5,49.8333 228.5,50.5C 227.532,52.6074 227.198,54.9407 227.5,57.5C 227.832,103.003 227.499,148.336 226.5,193.5C 226.168,145.33 226.501,97.3304 227.5,49.5 Z"/></g>
<g><path style="opacity:1" fill="#70b3c5" d="M 12.5,56.5 C 12.5,104.5 12.5,152.5 12.5,200.5C 26.0105,200.171 39.3438,200.504 52.5,201.5C 38.8333,201.5 25.1667,201.5 11.5,201.5C 11.1678,152.997 11.5012,104.664 12.5,56.5 Z"/></g>
<g><path style="opacity:1" fill="#d1e9ef" d="M 51.5,194.5 C 40.9865,194.828 30.6532,194.494 20.5,193.5C 21.1619,145.155 20.4952,97.1551 18.5,49.5C 18.811,48.5222 19.4777,47.8555 20.5,47.5C 21.4999,95.8287 21.8333,144.162 21.5,192.5C 31.7252,192.083 41.7252,192.749 51.5,194.5 Z"/></g>
<g><path style="opacity:1" fill="#c3e0e8" d="M 189.5,28.5 C 198.318,27.5067 207.318,27.1734 216.5,27.5C 216.832,79.6693 216.499,131.669 215.5,183.5C 215.832,131.664 215.499,79.9973 214.5,28.5C 206.167,28.5 197.833,28.5 189.5,28.5 Z"/></g>
<g><path style="opacity:1" fill="#7bbac9" d="M 131.5,45.5 C 131.5,46.1667 131.5,46.8333 131.5,47.5C 130.167,72.6578 129.5,98.1578 129.5,124C 129.5,149.842 130.167,175.342 131.5,200.5C 130.791,201.404 129.791,201.737 128.5,201.5C 128.333,149.832 128.5,98.1656 129,46.5C 129.671,45.7476 130.504,45.4142 131.5,45.5 Z"/></g>
<g><path style="opacity:1" fill="#84bbca" d="M 31.5,183.5 C 31.5,183.167 31.5,182.833 31.5,182.5C 32.5,182.5 33.5,182.5 34.5,182.5C 45.3827,182.144 56.0494,182.81 66.5,184.5C 54.8463,183.806 43.1797,183.473 31.5,183.5 Z"/></g>
<g><path style="opacity:1" fill="#95c6d4" d="M 67.5,184.5 C 72.1811,184.669 76.8478,185.002 81.5,185.5C 82.1667,186.167 82.8333,186.833 83.5,187.5C 77.9633,186.913 72.63,185.913 67.5,184.5 Z"/></g>
<g><path style="opacity:1" fill="#62adc0" d="M 184.5,183.5 C 183.432,184.434 182.099,184.768 180.5,184.5C 176.183,184.083 172.183,184.75 168.5,186.5C 163.88,186.74 159.547,187.74 155.5,189.5C 153.139,189.674 150.806,190.007 148.5,190.5C 153.231,188.111 158.231,186.278 163.5,185C 170.445,183.77 177.445,183.27 184.5,183.5 Z"/></g>
<g><path style="opacity:1" fill="#b2d6de" d="M 180.5,184.5 C 176.684,185.482 172.684,186.149 168.5,186.5C 172.183,184.75 176.183,184.083 180.5,184.5 Z"/></g>
<g><path style="opacity:1" fill="#64b0c2" d="M 81.5,185.5 C 85.2733,185.263 88.9399,185.763 92.5,187C 95.3765,189.437 98.7098,190.77 102.5,191C 104.192,192.307 105.525,193.807 106.5,195.5C 99.2954,191.653 91.6287,188.987 83.5,187.5C 82.8333,186.833 82.1667,186.167 81.5,185.5 Z"/></g>
<g><path style="opacity:1" fill="#c5e1e9" d="M 155.5,189.5 C 153.064,190.871 150.397,191.871 147.5,192.5C 147.833,191.833 148.167,191.167 148.5,190.5C 150.806,190.007 153.139,189.674 155.5,189.5 Z"/></g>
<g><path style="opacity:1" fill="#b0d6df" d="M 202.5,193.5 C 210.167,193.5 217.833,193.5 225.5,193.5C 208.297,194.158 190.964,195.158 173.5,196.5C 176.023,195.616 178.69,194.782 181.5,194C 188.492,193.5 195.492,193.334 202.5,193.5 Z"/></g>
<g><path style="opacity:1" fill="#b9dae4" d="M 67.5,195.5 C 72.5364,195.588 77.5364,196.088 82.5,197C 83.4158,197.278 84.0825,197.778 84.5,198.5C 78.6505,197.804 72.9839,196.804 67.5,195.5 Z"/></g>
<g><path style="opacity:1" fill="#bad9e1" d="M 139.5,195.5 C 139.027,196.906 138.027,197.573 136.5,197.5C 136.973,196.094 137.973,195.427 139.5,195.5 Z"/></g>
<g><path style="opacity:1" fill="#49a6c0" d="M 18.5,50.5 C 19.4988,97.9971 19.8321,145.664 19.5,193.5C 19.8333,193.5 20.1667,193.5 20.5,193.5C 30.6532,194.494 40.9865,194.828 51.5,194.5C 56.8333,194.833 62.1667,195.167 67.5,195.5C 72.9839,196.804 78.6505,197.804 84.5,198.5C 87.3704,199.634 90.3704,200.3 93.5,200.5C 95.936,201.871 98.6027,202.871 101.5,203.5C 101.833,203.5 102.167,203.5 102.5,203.5C 104.456,204.492 106.456,205.492 108.5,206.5C 110.463,207.82 112.463,209.154 114.5,210.5C 110.366,211.485 106.032,211.818 101.5,211.5C 97.7942,208.491 93.4608,206.824 88.5,206.5C 88.1667,206.5 87.8333,206.5 87.5,206.5C 86.3998,205.442 85.0664,204.608 83.5,204C 79.5138,203.501 75.5138,203.334 71.5,203.5C 70.5,203.5 69.5,203.5 68.5,203.5C 63.402,202.043 58.0687,201.376 52.5,201.5C 39.3438,200.504 26.0105,200.171 12.5,200.5C 12.5,152.5 12.5,104.5 12.5,56.5C 14.1667,54.1667 16.1667,52.1667 18.5,50.5 Z"/></g>
<g><path style="opacity:1" fill="#40a7c3" d="M 19.5,193.5 C 32.8885,195.042 46.5552,196.208 60.5,197C 58.1223,198.768 55.6223,198.935 53,197.5C 47.0934,198.721 41.0934,199.388 35,199.5C 27.8565,199.714 20.8565,199.047 14,197.5C 13.3333,150.833 13.3333,104.167 14,57.5C 15.3139,56.6872 16.4805,55.6872 17.5,54.5C 18.1667,100.998 18.8333,147.332 19.5,193.5 Z"/></g>
<g><path style="opacity:1" fill="#a2ccd9" d="M 170.5,196.5 C 166.117,198.23 161.45,199.23 156.5,199.5C 160.883,197.77 165.55,196.77 170.5,196.5 Z"/></g>
<g><path style="opacity:1" fill="#b7d9e2" d="M 93.5,200.5 C 96.716,200.345 99.3826,201.345 101.5,203.5C 98.6027,202.871 95.936,201.871 93.5,200.5 Z"/></g>
<g><path style="opacity:1" fill="#83becd" d="M 234.5,56.5 C 234.833,56.5 235.167,56.5 235.5,56.5C 235.5,104.833 235.5,153.167 235.5,201.5C 220.324,201.171 205.324,201.504 190.5,202.5C 188.167,202.5 185.833,202.5 183.5,202.5C 177.767,202.647 172.1,203.314 166.5,204.5C 171.3,201.747 176.634,200.747 182.5,201.5C 199.813,200.587 217.146,200.254 234.5,200.5C 234.5,152.5 234.5,104.5 234.5,56.5 Z"/></g>
<g><path style="opacity:1" fill="#b6d8e2" d="M 11.5,201.5 C 25.1667,201.5 38.8333,201.5 52.5,201.5C 58.0687,201.376 63.402,202.043 68.5,203.5C 49.3412,202.941 30.3412,202.275 11.5,201.5 Z"/></g>
<g><path style="opacity:1" fill="#86bfcf" d="M 71.5,203.5 C 75.5138,203.334 79.5138,203.501 83.5,204C 85.0664,204.608 86.3998,205.442 87.5,206.5C 81.9633,205.913 76.63,204.913 71.5,203.5 Z"/></g>
<g><path style="opacity:1" fill="#d0e6ec" d="M 102.5,203.5 C 105.313,203.025 107.313,204.025 108.5,206.5C 106.456,205.492 104.456,204.492 102.5,203.5 Z"/></g>
<g><path style="opacity:1" fill="#46a7c2" d="M 227.5,57.5 C 228.499,103.33 228.832,149.33 228.5,195.5C 222.489,195.801 216.489,196.301 210.5,197C 213.992,197.135 217.325,197.968 220.5,199.5C 208.829,199.333 197.162,199.5 185.5,200C 184.263,200.232 183.263,200.732 182.5,201.5C 176.634,200.747 171.3,201.747 166.5,204.5C 165.833,204.5 165.167,204.5 164.5,204.5C 161.813,204.336 159.146,204.503 156.5,205C 150.349,207.744 144.015,209.911 137.5,211.5C 135.833,211.333 134.167,211.167 132.5,211C 133.381,210.292 134.047,209.458 134.5,208.5C 134.842,207.662 135.508,207.328 136.5,207.5C 138.027,207.573 139.027,206.906 139.5,205.5C 144.79,202.735 150.457,200.735 156.5,199.5C 161.45,199.23 166.117,198.23 170.5,196.5C 171.5,196.5 172.5,196.5 173.5,196.5C 190.964,195.158 208.297,194.158 225.5,193.5C 225.833,193.5 226.167,193.5 226.5,193.5C 227.499,148.336 227.832,103.003 227.5,57.5 Z"/></g>
<g><path style="opacity:1" fill="#d5eaf0" d="M 183.5,202.5 C 177.457,204.508 171.124,205.508 164.5,205.5C 164.5,205.167 164.5,204.833 164.5,204.5C 165.167,204.5 165.833,204.5 166.5,204.5C 172.1,203.314 177.767,202.647 183.5,202.5 Z"/></g>
<g><path style="opacity:1" fill="#99c6d2" d="M 139.5,205.5 C 139.027,206.906 138.027,207.573 136.5,207.5C 136.973,206.094 137.973,205.427 139.5,205.5 Z"/></g>
<g><path style="opacity:1" fill="#d6e9ef" d="M 163.5,205.5 C 161.898,207.074 159.898,207.741 157.5,207.5C 159.102,205.926 161.102,205.259 163.5,205.5 Z"/></g>
<g><path style="opacity:1" fill="#69b1c3" d="M 164.5,204.5 C 164.5,204.833 164.5,205.167 164.5,205.5C 164.167,205.5 163.833,205.5 163.5,205.5C 161.102,205.259 159.102,205.926 157.5,207.5C 155.102,207.259 153.102,207.926 151.5,209.5C 148.848,209.41 146.515,210.076 144.5,211.5C 144.158,212.338 143.492,212.672 142.5,212.5C 138.298,212.817 134.298,212.483 130.5,211.5C 131.262,209.738 132.596,208.738 134.5,208.5C 134.047,209.458 133.381,210.292 132.5,211C 134.167,211.167 135.833,211.333 137.5,211.5C 144.015,209.911 150.349,207.744 156.5,205C 159.146,204.503 161.813,204.336 164.5,204.5 Z"/></g>
<g><path style="opacity:1" fill="#96c7d4" d="M 88.5,206.5 C 93.4608,206.824 97.7942,208.491 101.5,211.5C 96.8558,210.401 92.5225,208.734 88.5,206.5 Z"/></g>
<g><path style="opacity:1" fill="#d4e8ee" d="M 151.5,209.5 C 149.485,210.924 147.152,211.59 144.5,211.5C 146.515,210.076 148.848,209.41 151.5,209.5 Z"/></g>
<g><path style="opacity:1" fill="#7bb6c6" d="M 114.5,210.5 C 114.833,210.5 115.167,210.5 115.5,210.5C 115.611,211.117 115.944,211.617 116.5,212C 112.179,212.499 107.846,212.666 103.5,212.5C 102.508,212.672 101.842,212.338 101.5,211.5C 106.032,211.818 110.366,211.485 114.5,210.5 Z"/></g>
<g><path style="opacity:1" fill="#cfe5ea" d="M 115.5,210.5 C 117.048,210.821 117.715,211.821 117.5,213.5C 112.637,213.819 107.97,213.486 103.5,212.5C 107.846,212.666 112.179,212.499 116.5,212C 115.944,211.617 115.611,211.117 115.5,210.5 Z"/></g>
<g><path style="opacity:1" fill="#c8e3e8" d="M 130.5,211.5 C 134.298,212.483 138.298,212.817 142.5,212.5C 138.317,213.811 133.984,213.811 129.5,212.5C 129.624,211.893 129.957,211.56 130.5,211.5 Z"/></g>
</svg>
